<?xml version="1.0" encoding="utf-8"?>
<!-- Generator: Adobe Illustrator 21.0.0, SVG Export Plug-In . SVG Version: 6.00 Build 0)  -->
<svg version="1.1" id="Layer_1" xmlns="http://www.w3.org/2000/svg" xmlns:xlink="http://www.w3.org/1999/xlink" x="0px" y="0px"
	 width="141.8px" height="27.5px" viewBox="0 0 141.8 27.5" style="enable-background:new 0 0 141.8 27.5;" xml:space="preserve">
<style type="text/css">
	.st0{fill:#FFFFFF;}
</style>
<g>
	<path class="st0" d="M0,0.9c0-0.3,0.3-0.6,0.6-0.6h3.5c0.3,0,0.6,0.3,0.6,0.6v7.5h8.5V0.9c0-0.3,0.2-0.6,0.6-0.6h3.5
		c0.3,0,0.6,0.3,0.6,0.6v19.6c0,0.3-0.3,0.6-0.6,0.6h-3.5c-0.3,0-0.6-0.3-0.6-0.6v-7.8H4.7v7.8c0,0.3-0.2,0.6-0.6,0.6H0.6
		C0.3,21,0,20.8,0,20.5V0.9z"/>
	<path class="st0" d="M31.4,0c2.5,0,5.2,1,7.2,2.8c0.3,0.2,0.3,0.6,0.1,0.8l-2.3,2.5c-0.2,0.2-0.6,0.2-0.8,0c-1.1-1-2.4-1.4-3.9-1.4
		c-3.2,0-5.8,2.7-5.8,6c0,3.2,2.6,5.9,5.9,5.9c0.9,0,1.7-0.1,2.6-0.5v-1.7h-1.9c-0.3,0-0.6-0.2-0.6-0.5v-2.9c0-0.3,0.2-0.6,0.6-0.6
		h6c0.3,0,0.5,0.3,0.5,0.6l0,8c0,0.3-0.1,0.4-0.2,0.5c0,0-3.1,1.9-7.4,1.9c-5.9,0-10.6-4.7-10.6-10.6C20.7,4.8,25.5,0,31.4,0z"/>
	<path class="st0" d="M41.1,20.3l9.3-19.9C50.5,0.1,50.7,0,50.9,0h0.3c0.2,0,0.4,0.1,0.5,0.3L61,20.3c0.2,0.4-0.1,0.8-0.5,0.8h-3.3
		c-0.5,0-0.8-0.2-1-0.7L55.1,18H47L46,20.3c-0.1,0.4-0.5,0.7-1.1,0.7h-3.3C41.2,21,41,20.7,41.1,20.3z M53.3,13.9L51.1,9h0l-2.2,4.9
		H53.3z"/>
	<path class="st0" d="M69.4,0.7c0-0.2,0.2-0.4,0.4-0.4h6.3c5.8,0,10.4,4.7,10.4,10.3c0,5.8-4.7,10.4-10.4,10.4h-6.3
		c-0.2,0-0.4-0.2-0.4-0.4V0.7z M75.8,19.8c5.3,0,9.2-3.9,9.2-9.1c0-5.1-3.9-9.1-9.2-9.1h-5v18.2H75.8z"/>
	<path class="st0" d="M89.3,2.4c0-0.7,0.5-1.2,1.2-1.2c0.7,0,1.2,0.5,1.2,1.2c0,0.6-0.5,1.1-1.2,1.1C89.8,3.6,89.3,3.1,89.3,2.4z
		 M89.9,7.8c0-0.2,0.2-0.4,0.4-0.4h0.4c0.2,0,0.4,0.2,0.4,0.4v12.8c0,0.3-0.1,0.4-0.4,0.4h-0.5c-0.3,0-0.4-0.2-0.4-0.4V7.8z"/>
	<path class="st0" d="M105.1,19.9c-0.4,0.3-1.9,1.4-4.1,1.4c-4,0-6.8-3.2-6.8-7.2c0-4,2.7-7.1,6.5-7.1c2.5,0,4.2,1.3,4.6,1.6
		l0.1-0.9c0-0.3,0.1-0.4,0.4-0.4h0.2c0.2,0,0.5,0.1,0.5,0.4v13.6c0,3.9-2.6,6.1-6.1,6.1c-2.3,0-4-1.2-4.6-1.8
		c-0.2-0.2-0.2-0.3-0.1-0.5l0.3-0.4c0.2-0.2,0.3-0.2,0.6,0c0.5,0.4,2.1,1.4,3.8,1.4c2.7,0,4.8-1.6,4.8-4.9V19.9z M105.1,10.1
		c-0.2-0.2-1.8-1.8-4.4-1.8c-3.1,0-5.2,2.6-5.2,5.8c0,3.3,2.2,6,5.5,6c2.3,0,3.9-1.5,4.1-1.7V10.1z"/>
	<path class="st0" d="M109.7,2.4c0-0.7,0.5-1.2,1.2-1.2c0.7,0,1.2,0.5,1.2,1.2c0,0.6-0.5,1.1-1.2,1.1C110.2,3.6,109.7,3.1,109.7,2.4
		z M110.2,7.8c0-0.2,0.2-0.4,0.4-0.4h0.4c0.2,0,0.4,0.2,0.4,0.4v12.8c0,0.3-0.1,0.4-0.4,0.4h-0.5c-0.3,0-0.4-0.2-0.4-0.4V7.8z"/>
	<path class="st0" d="M117.2,8.6h-1.7c-0.4,0-0.4-0.2-0.4-0.4V7.7c0-0.3,0.2-0.4,0.4-0.4h1.7V3.6c0-0.3,0.2-0.4,0.5-0.4l0.4,0
		c0.2,0,0.4,0.2,0.4,0.4v3.8h4.8c0.3,0,0.5,0.2,0.5,0.4v0.4c0,0.3-0.2,0.4-0.5,0.4h-4.8v9c0,1.8,0.3,2.5,1.9,2.5
		c1.5,0,2.7-0.8,3.1-1.1c0.3-0.2,0.4,0,0.5,0.1l0.2,0.4c0.1,0.2,0.1,0.4-0.1,0.5c-0.5,0.4-2.1,1.3-4,1.3c-2.5,0-3-1.7-3-3.6V8.6z"/>
	<path class="st0" d="M131.8,12.2c1.6,0,3.2,0.5,3.5,0.6c0-3-0.4-4.6-3.1-4.6c-2.3,0-3.8,0.8-4.1,0.9c-0.3,0.1-0.5,0-0.5-0.2
		l-0.1-0.4c-0.1-0.3,0-0.4,0.2-0.5c0.1-0.1,1.8-1,4.7-1c4.1,0,4.3,2.4,4.3,6v7.6c0,0.2-0.2,0.4-0.5,0.4h-0.2c-0.2,0-0.4-0.1-0.4-0.4
		l-0.1-1.2c-0.9,0.9-2.6,2-4.8,2c-2.5,0-4.4-1.7-4.4-4.5C126.1,14.2,128.2,12.2,131.8,12.2z M130.7,20.1c2.1,0,4-1.2,4.6-2.1v-3.9
		c-0.4-0.2-1.9-0.7-3.5-0.7c-2.6,0-4.4,1.4-4.4,3.4C127.4,18.8,128.8,20.1,130.7,20.1z"/>
	<path class="st0" d="M140.5,0.7c0-0.2,0.2-0.4,0.4-0.4h0.4c0.2,0,0.4,0.2,0.4,0.4v19.9c0,0.3-0.1,0.4-0.4,0.4h-0.5
		c-0.3,0-0.4-0.2-0.4-0.4V0.7z"/>
</g>
</svg>
